# xmcd CD database file
#
# Track frame offsets:
#	150
#	14863
#	32963
#	51230
#	65399
#	82089
#	97094
#	122464
#	133355
#	146796
#	163769
#	182897
#	198884
#	213610
#
# Disc length: 2994 seconds
#
# Revision: 4
# Processed by: cddbd v1.5.2PL0 Copyright (c) Steve Scherf et al.
# Submitted via: CDex 1.70beta2
#
DISCID=c50bb00e,df0bb00e
DTITLE=Räuber - Kölsches Bloot
DYEAR=1998
DGENRE=Kölsch
TTITLE0=Dat wat dä hätt
TTITLE1=Die Naach es noch 'su lang
TTITLE2=Kirmesleed
TTITLE3=Leever laache
TTITLE4=Oh, welch ein Malör
TTITLE5=Staatse Mädcher bruch d'r Mann
TTITLE6=Kölsches Bloot
TTITLE7=Annabell
TTITLE8=Woröm
TTITLE9=De schönste Johre
TTITLE10=Wenn Sorje Geld wör
TTITLE11=Wie Du widder ussühs
TTITLE12=Himmel op d'r Äd
TTITLE13=Jode Naach
EXTD=YEAR: 1998
EXTT0=
EXTT1=
EXTT2=
EXTT3=
EXTT4=
EXTT5=
EXTT6=
EXTT7=
EXTT8=
EXTT9=
EXTT10=
EXTT11=
EXTT12=
EXTT13=
PLAYORDER=
